<?xml version="1.0" standalone="no"?><!-- Generator: Gravit.io --><svg xmlns="http://www.w3.org/2000/svg" xmlns:xlink="http://www.w3.org/1999/xlink" style="isolation:isolate" viewBox="1 8.5 487 577" width="487" height="577"><defs><clipPath id="_clipPath_Mr0gExTSti6IN3LFoLftv5AFAY8TCNY8"><rect width="487.629" height="595"/></clipPath></defs><g clip-path="url(#_clipPath_Mr0gExTSti6IN3LFoLftv5AFAY8TCNY8)"><g style="isolation:isolate" id="Layer 0"><g id="sheild"><path d=" M 244.344 8.5 Q 347.559 104.855 488.629 142.645 Q 474.374 236.647 454.739 325.27 Q 445.903 396.451 410.495 441.059 Q 385.922 474.85 355.425 502.718 Q 305.041 549.766 244.344 586.5 Q 165.626 538.604 104.55 473.065 Q 47.391 420.556 33.948 324.329 Q 15.067 235.894 1 142.645 Q 149.701 102.602 244.344 8.5 Z " fill="rgb(0,0,0)"/><path d=" M 243.743 36.954 Q 336.796 123.822 463.977 157.891 Q 451.125 242.639 433.424 322.536 Q 430.25 353.632 420.575 379.398 Q 419.288 382.823 361.824 405.588 Q 413.455 395.957 411.824 399.1 C 406.834 408.716 400 418.782 393.536 426.924 Q 371.382 457.389 343.888 482.513 Q 298.465 524.929 243.743 558.046 Q 172.776 514.866 117.713 455.78 Q 91.947 432.11 76.034 398.587 C 75.432 397.317 81.742 396.816 97.824 399.588 Q 110.236 401.015 127.824 406.16 Q 69.535 383.503 68.304 380.158 C 61.78 362.444 57.033 342.954 54.062 321.688 Q 37.04 241.959 24.358 157.891 Q 158.419 121.791 243.743 36.954 Z " fill="rgb(91,122,151)"/><g opacity="0.51"><path d=" M 185.71 95.102 C 189.593 94.023 196.138 92.558 198.794 96.808 L 198.794 96.808 L 288.108 309 L 290.953 308.431 L 290.953 152.558 L 290.953 113.875 L 293.797 95.102 L 321.413 103 L 345.413 117 L 347.841 323.222 L 347.841 375.559 L 347.576 393.323 L 338.17 404.572 L 338.17 404.572 L 311.432 439.273 L 313.139 438.704 L 347.272 427.327 L 347.287 472 L 329.287 488 L 297.779 497.299 L 230.652 339.151 Q 222.402 307.01 206.19 282.832 Q 201.354 285.96 204.483 297.054 L 204.483 338.013 L 203.914 497.868 L 176.287 495 L 148.733 469.993 L 148.733 426.758 Q 149.433 425.218 151.577 426.189 L 190.261 439.842 L 189.692 438.135 L 159.542 400.021 Q 148.892 382.814 148.733 372.146 L 148.733 372.146 L 148.733 326.635 L 148.733 143.456 L 152.146 136.63 C 149.52 130.971 148.726 124.607 148.733 118.426 L 148.733 118.426 L 185.71 95.102 Z " fill="rgb(0,0,0)" vector-effect="non-scaling-stroke" stroke-width="1" stroke="rgb(0,0,0)" stroke-linejoin="miter" stroke-linecap="square" stroke-miterlimit="3"/></g><path d=" M 182.297 95.102 C 186.18 94.023 192.725 92.558 195.381 96.808 L 195.381 96.808 L 284.695 309 L 287.539 308.431 L 287.539 152.558 L 287.539 113.875 L 290.384 95.102 L 318 103 L 342 117 L 344.427 323.222 L 344.427 375.559 L 344.163 393.323 L 334.756 404.572 L 334.756 404.572 L 308.019 439.273 L 309.726 438.704 L 343.858 427.327 L 343.874 472 L 325.874 488 L 294.366 497.299 L 227.238 339.151 Q 218.989 307.01 202.777 282.832 Q 197.941 285.96 201.07 297.054 L 201.07 338.013 L 200.501 497.868 L 172.874 495 L 145.32 469.993 L 145.32 426.758 Q 146.02 425.218 148.164 426.189 L 186.848 439.842 L 186.279 438.135 L 156.128 400.021 Q 145.479 382.814 145.32 372.146 L 145.32 372.146 L 145.32 326.635 L 145.32 143.456 L 148.733 136.63 C 146.107 130.971 145.312 124.607 145.32 118.426 L 145.32 118.426 L 182.297 95.102 Z " fill="rgb(255,255,255)" vector-effect="non-scaling-stroke" stroke-width="1" stroke="rgb(0,0,0)" stroke-linejoin="miter" stroke-linecap="square" stroke-miterlimit="3"/><g opacity="0.75"><path d=" M 196.158 512.603 Q 227.221 518.873 244.344 519 Q 261.818 519.129 293.589 513.073 Q 270.341 531.246 244.167 546.492 Q 217.633 531.091 196.158 512.603 Z " fill="rgb(0,0,0)"/></g><g opacity="0.75"><path d=" M 441.714 155 Q 447.401 156.916 458 160.143 L 446 238 Q 446.216 200.306 440 181 Q 436.184 169.148 425 149 Q 435.801 153.008 441.714 155 Z " fill="rgb(0,0,0)"/></g><g opacity="0.75"><path d=" M 46.286 155 Q 40.599 156.916 30 160.143 L 42 238 Q 41.784 200.306 48 181 Q 51.816 169.148 63 149 Q 52.199 153.008 46.286 155 Z " fill="rgb(0,0,0)"/></g><g opacity="0.39"><path d=" M 237.705 50.507 Q 239.932 48.506 243.933 44.694 L 274.811 69 Q 256.47 53.95 244 54 Q 239.339 54.019 231 56.296 Q 235.39 52.588 237.705 50.507 Z " fill="rgb(0,0,0)"/></g></g></g></g></svg>